<svg xmlns="http://www.w3.org/2000/svg" version="1.1" xmlns:xlink="http://www.w3.org/1999/xlink" width="512" height="512" x="0" y="0" viewBox="0 0 512 512" style="enable-background:new 0 0 512 512" xml:space="preserve" class=""><g><path fill="#ff5364" d="M17.655 308.966h35.31c9.751 0 17.655 7.905 17.655 17.655v167.724c0 9.751-7.904 17.655-17.655 17.655h-35.31C7.904 512 0 504.095 0 494.345V326.621c0-9.751 7.904-17.655 17.655-17.655z" opacity="1" data-original="#ff5364"></path><path fill="#fdd7ad" d="M431.316 399.713 288.75 486.577a52.964 52.964 0 0 1-27.719 7.768H70.621V326.621h20.48a71.07 71.07 0 0 1 24.717 4.326 70.122 70.122 0 0 1 21.274 11.829 104.7 104.7 0 0 0 21.628 13.506 60.678 60.678 0 0 0 24.364 5.65h42.284a40.808 40.808 0 0 1 35.31 20.833 25.595 25.595 0 0 1 3.972 14.477 26.536 26.536 0 0 1-8.386 17.39c.836-.154 1.662-.36 2.472-.618l25.159-8.386 67.531-22.599 62.499-20.921a21.01 21.01 0 0 1 23.305 7.239v.088a20.799 20.799 0 0 1-5.914 30.278z" opacity="1" data-original="#fdd7ad" class=""></path><path fill="#f0c419" d="M414.897 256a158.5 158.5 0 0 1-63.47 127.029l-92.69 30.985c-.81.258-1.636.464-2.472.618 9.24-8.021 11.126-21.638 4.414-31.868a40.809 40.809 0 0 0-35.31-20.833h-42.284a60.674 60.674 0 0 1-24.364-5.65 104.754 104.754 0 0 1-21.628-13.506 70.146 70.146 0 0 0-21.274-11.829c-36.886-69.156-17.891-154.875 44.756-201.975l92.69-30.985c.81-.258 1.636-.464 2.472-.618-9.24 8.021-11.126 21.637-4.414 31.868a40.809 40.809 0 0 0 35.31 20.833h42.284a60.674 60.674 0 0 1 24.364 5.65 104.754 104.754 0 0 1 21.628 13.506 70.146 70.146 0 0 0 21.274 11.829A158.756 158.756 0 0 1 414.897 256z" opacity="1" data-original="#f0c419"></path><path fill="#f3d55b" d="M142.124 312.85a8.828 8.828 0 0 1-8.13-5.376A130.796 130.796 0 0 1 123.586 256c-.037-56.914 36.345-107.469 90.324-125.511a8.843 8.843 0 1 1 5.614 16.772c-46.772 15.628-78.302 59.424-78.283 108.738a113.168 113.168 0 0 0 9.013 44.57 8.827 8.827 0 0 1-4.679 11.573 8.638 8.638 0 0 1-3.451.708zM295.283 381.978a8.829 8.829 0 0 1-2.808-17.205c46.785-15.632 78.318-59.447 78.283-108.773a113.168 113.168 0 0 0-9.013-44.57c-1.906-4.488.186-9.671 4.674-11.577s9.671.186 11.577 4.674a130.78 130.78 0 0 1 10.417 51.474c.037 56.914-36.345 107.469-90.324 125.511a8.924 8.924 0 0 1-2.806.466z" opacity="1" data-original="#f3d55b"></path><path fill="#b19046" d="M264.828 247.746v-43.891c15.007 2.534 26.483 11.193 26.483 21.248a8.828 8.828 0 0 0 17.656 0c0-20.012-18.794-36.078-44.138-39.15v-9.401a8.828 8.828 0 0 0-17.656 0v9.401c-25.344 3.072-44.138 19.138-44.138 39.15s18.794 36.078 44.138 39.15v43.891c-15.007-2.534-26.483-11.193-26.483-21.248a8.828 8.828 0 0 0-17.656 0c0 20.012 18.794 36.078 44.138 39.15v9.401a8.828 8.828 0 0 0 17.656 0v-9.401c25.344-3.072 44.138-19.138 44.138-39.15s-18.794-36.078-44.138-39.15zm-44.138-22.643c0-10.055 11.476-18.714 26.483-21.248v42.496c-15.007-2.533-26.483-11.193-26.483-21.248zm44.138 83.042v-42.496c15.007 2.534 26.483 11.193 26.483 21.248s-11.476 18.714-26.483 21.248z" opacity="1" data-original="#b19046"></path><path fill="#f9c795" d="M188.381 414.897a59.562 59.562 0 0 0-33.28 10.152l-5.385 3.531a8.294 8.294 0 0 1-4.855 1.501 8.828 8.828 0 0 1-4.855-16.154l5.297-3.531a76.927 76.927 0 0 1 43.079-13.153h76.27a27.137 27.137 0 0 1-8.386 17.655z" opacity="1" data-original="#f9c795"></path><path fill="#3b97d3" d="M459.034 0h35.31C504.095 0 512 7.904 512 17.655v167.724c0 9.751-7.905 17.655-17.655 17.655h-35.31c-9.751 0-17.655-7.904-17.655-17.655V17.655C441.379 7.904 449.284 0 459.034 0z" opacity="1" data-original="#3b97d3"></path><path fill="#fdd7ad" d="M80.684 112.287 223.25 25.423a52.964 52.964 0 0 1 27.719-7.768H441.38v167.724H420.9a71.07 71.07 0 0 1-24.717-4.326 70.122 70.122 0 0 1-21.274-11.829 104.7 104.7 0 0 0-21.628-13.506 60.678 60.678 0 0 0-24.364-5.65h-42.284a40.808 40.808 0 0 1-35.31-20.833 25.595 25.595 0 0 1-3.972-14.477 26.536 26.536 0 0 1 8.386-17.39c-.836.154-1.662.36-2.472.618l-25.159 8.386-67.531 22.599-62.499 20.921a21.01 21.01 0 0 1-23.305-7.239v-.088a20.799 20.799 0 0 1 5.913-30.278z" opacity="1" data-original="#fdd7ad" class=""></path><path fill="#f9c795" d="M323.619 97.103a59.57 59.57 0 0 0 33.28-10.152l5.385-3.531a8.294 8.294 0 0 1 4.855-1.501 8.828 8.828 0 0 1 4.855 16.154l-5.297 3.531a76.927 76.927 0 0 1-43.079 13.153h-76.27a27.137 27.137 0 0 1 8.386-17.655h67.885z" opacity="1" data-original="#f9c795"></path></g></svg>