<svg xmlns="http://www.w3.org/2000/svg" version="1.1" xmlns:xlink="http://www.w3.org/1999/xlink" width="512" height="512" x="0" y="0" viewBox="0 0 510 510" style="enable-background:new 0 0 512 512" xml:space="preserve" class=""><g><linearGradient id="a"><stop offset="0" stop-color="#26a6fe"></stop><stop offset="1" stop-color="#2740b0"></stop></linearGradient><linearGradient xlink:href="#a" id="h" x1="136" x2="564.803" y1="66.555" y2="495.358" gradientUnits="userSpaceOnUse"></linearGradient><linearGradient id="i" x1="89.683" x2="61.144" y1="97.539" y2="69.001" gradientUnits="userSpaceOnUse"><stop offset="0" stop-color="#2740b0" stop-opacity="0"></stop><stop offset=".257" stop-color="#253daa" stop-opacity=".257"></stop><stop offset=".604" stop-color="#213699" stop-opacity=".604"></stop><stop offset="1" stop-color="#192a7d"></stop></linearGradient><linearGradient id="b"><stop offset="0" stop-color="#2740b0" stop-opacity="0"></stop><stop offset="1" stop-color="#192a7d"></stop></linearGradient><linearGradient xlink:href="#b" id="j" x1="255" x2="255" y1="319.555" y2="365.189" gradientUnits="userSpaceOnUse"></linearGradient><linearGradient xlink:href="#b" id="k" x1="257.187" x2="216.687" y1="433.842" y2="334.842" gradientUnits="userSpaceOnUse"></linearGradient><linearGradient id="c"><stop offset="0" stop-color="#fff"></stop><stop offset="1" stop-color="#d8ecfe"></stop></linearGradient><linearGradient xlink:href="#c" id="l" x1="197.103" x2="337.103" y1="79.273" y2="336.273" gradientUnits="userSpaceOnUse"></linearGradient><linearGradient id="d"><stop offset="0" stop-color="#a8d3d8" stop-opacity="0"></stop><stop offset="1" stop-color="#6cabca"></stop></linearGradient><linearGradient xlink:href="#d" id="m" x1="82.621" x2="54.713" y1="91.934" y2="64.025" gradientUnits="userSpaceOnUse"></linearGradient><linearGradient xlink:href="#d" id="n" x1="260.202" x2="104.202" y1="378.112" y2="230.112" gradientUnits="userSpaceOnUse"></linearGradient><linearGradient id="e"><stop offset="0" stop-color="#5a5a5a"></stop><stop offset="1" stop-color="#444"></stop></linearGradient><linearGradient xlink:href="#e" id="o" x1="65.601" x2="81.601" y1="160.985" y2="251.985" gradientUnits="userSpaceOnUse"></linearGradient><linearGradient xlink:href="#e" id="p" x1="107.839" x2="123.839" y1="153.558" y2="244.558" gradientUnits="userSpaceOnUse"></linearGradient><linearGradient xlink:href="#e" id="q" x1="148.976" x2="164.976" y1="146.325" y2="237.325" gradientUnits="userSpaceOnUse"></linearGradient><linearGradient xlink:href="#e" id="r" x1="194.986" x2="210.986" y1="138.236" y2="229.236" gradientUnits="userSpaceOnUse"></linearGradient><linearGradient xlink:href="#e" id="s" x1="221.592" x2="237.592" y1="133.558" y2="224.558" gradientUnits="userSpaceOnUse"></linearGradient><linearGradient xlink:href="#e" id="t" x1="253.106" x2="269.106" y1="128.017" y2="219.017" gradientUnits="userSpaceOnUse"></linearGradient><linearGradient xlink:href="#e" id="u" x1="280.638" x2="296.638" y1="123.176" y2="214.176" gradientUnits="userSpaceOnUse"></linearGradient><linearGradient xlink:href="#e" id="v" x1="312.85" x2="328.85" y1="117.512" y2="208.512" gradientUnits="userSpaceOnUse"></linearGradient><linearGradient xlink:href="#e" id="w" x1="351.526" x2="367.526" y1="110.712" y2="201.712" gradientUnits="userSpaceOnUse"></linearGradient><linearGradient xlink:href="#e" id="x" x1="397.591" x2="413.591" y1="102.613" y2="193.613" gradientUnits="userSpaceOnUse"></linearGradient><linearGradient xlink:href="#e" id="y" x1="436.039" x2="452.039" y1="95.853" y2="186.853" gradientUnits="userSpaceOnUse"></linearGradient><linearGradient id="f"><stop offset="0" stop-color="#fee45a"></stop><stop offset="1" stop-color="#fea613"></stop></linearGradient><linearGradient xlink:href="#f" id="z" x1="219.06" x2="288.438" y1="93.366" y2="93.366" gradientUnits="userSpaceOnUse"></linearGradient><linearGradient xlink:href="#c" id="A" x1="63.677" x2="143.771" y1="359.195" y2="439.29" gradientUnits="userSpaceOnUse"></linearGradient><linearGradient xlink:href="#d" id="B" x1="121.934" x2="117.895" y1="473.232" y2="373.335" gradientUnits="userSpaceOnUse"></linearGradient><linearGradient id="g"><stop offset="0" stop-color="#fd4755"></stop><stop offset="1" stop-color="#a72b2b"></stop></linearGradient><linearGradient xlink:href="#g" id="C" x1="38.825" x2="124.031" y1="395.848" y2="437.349" gradientUnits="userSpaceOnUse"></linearGradient><linearGradient xlink:href="#a" id="D" x1="131.019" x2="223.57" y1="379.116" y2="450.366" gradientUnits="userSpaceOnUse"></linearGradient><linearGradient xlink:href="#b" id="E" x1="158.976" x2="158.976" y1="451.828" y2="405.376" gradientUnits="userSpaceOnUse"></linearGradient><linearGradient id="F" x1="49.732" x2="67.728" y1="459.335" y2="339.239" gradientUnits="userSpaceOnUse"><stop offset="0" stop-color="#a72b2b" stop-opacity="0"></stop><stop offset="1" stop-color="#42210b"></stop></linearGradient><linearGradient xlink:href="#f" id="G" x1="43.183" x2="211.528" y1="252.861" y2="421.206" gradientUnits="userSpaceOnUse"></linearGradient><linearGradient xlink:href="#f" id="H" x1="183.635" x2="5.733" y1="393.313" y2="215.411" gradientUnits="userSpaceOnUse"></linearGradient><linearGradient xlink:href="#f" id="I" x1="62.451" x2="154.583" y1="272.128" y2="364.26" gradientUnits="userSpaceOnUse"></linearGradient><linearGradient id="J" x1="109.504" x2="109.504" y1="345.574" y2="447.926" gradientUnits="userSpaceOnUse"><stop offset="0" stop-color="#fea613" stop-opacity="0"></stop><stop offset="1" stop-color="#e94444"></stop></linearGradient><linearGradient xlink:href="#g" id="K" x1="423.508" x2="498.05" y1="18.047" y2="92.589" gradientUnits="userSpaceOnUse"></linearGradient><linearGradient xlink:href="#g" id="L" x1="28.349" x2="81.042" y1="36.206" y2="88.898" gradientUnits="userSpaceOnUse"></linearGradient><path fill="url(#a)" d="M470.651 363.253H39.349C17.617 363.253 0 345.636 0 323.904V47.206C0 25.474 17.617 7.857 39.349 7.857h431.302C492.383 7.857 510 25.474 510 47.206v276.698c0 21.732-17.617 39.349-39.349 39.349z" opacity="1" data-original="url(#a)" class=""></path><path fill="url(#i)" d="M0 118.054v131.09L241.287 7.857h-131.09z" opacity="1" data-original="url(#i)"></path><path fill="url(#b)" d="M0 197.727v126.178c0 21.732 17.617 39.349 39.349 39.349h431.302c21.732 0 39.349-17.617 39.349-39.349V197.727z" opacity="1" data-original="url(#b)" class=""></path><path fill="url(#b)" d="M150.631 363.253h155.356L199.091 256.357l-13.482-1.769-34.978-34.979z" opacity="1" data-original="url(#b)" class=""></path><path fill="url(#c)" d="M451.479 33.171H58.521c-19.143 0-34.662 15.546-34.662 34.723v235.321c0 19.177 15.518 34.723 34.661 34.723h392.959c19.143 0 34.661-15.546 34.661-34.723V67.894c.001-19.177-15.518-34.723-34.661-34.723z" opacity="1" data-original="url(#c)" class=""></path><path fill="url(#d)" d="M23.859 94.195v131.09L215.972 33.171H84.883z" opacity="1" data-original="url(#d)"></path><path fill="url(#d)" d="M150.631 337.939h130.042l-81.582-81.582-13.482-1.769-34.978-34.979z" opacity="1" data-original="url(#d)"></path><path fill="url(#e)" d="M64.378 136.575c6.642 0 6.876 5.001 6.954 7.032.156 2.813 2.813 3.673 6.095 3.673 4.142 0 6.095-1.094 6.095-5.782 0-9.924-8.438-15.55-19.613-15.55-10.236 0-18.753 5.001-18.753 18.44v20.707c0 13.44 8.517 18.441 18.753 18.441 11.175 0 19.613-5.938 19.613-16.331 0-4.688-1.953-5.782-6.173-5.782-3.125 0-5.782.781-6.017 3.672-.234 3.048-.625 7.814-6.876 7.814-4.532 0-7.111-2.501-7.111-7.814v-20.707c0-5.313 2.579-7.813 7.033-7.813z" opacity="1" data-original="url(#e)" class=""></path><path fill="url(#e)" d="M122.826 136.575c2.345 0 3.673-2.501 3.673-5.392 0-2.501-1.094-5.235-3.673-5.235H95.009c-2.657 0-5.313 1.25-5.313 3.75v49.619c0 2.501 2.656 3.751 5.313 3.751h27.817c2.579 0 3.673-2.735 3.673-5.235 0-2.892-1.328-5.392-3.673-5.392h-20.941v-13.284h11.722c2.578 0 3.672-2.5 3.672-4.61 0-2.5-1.328-4.767-3.672-4.767h-11.722v-13.205z" opacity="1" data-original="url(#e)" class=""></path><path fill="url(#e)" d="M161.505 158.532c5.47-2.109 9.455-7.11 9.455-15.862 0-12.737-8.518-16.722-19.223-16.722h-16.175c-2.267 0-3.751 1.719-3.751 3.672v49.697c0 2.501 3.047 3.751 6.095 3.751s6.095-1.25 6.095-3.751v-18.832h5.157l10.705 20.786c.86 1.641 2.345 2.266 3.907 2.266 3.595 0 7.658-3.282 7.658-6.329 0-.391-.078-.938-.391-1.406zm-9.768-7.422h-7.736v-14.534h7.736c4.376 0 7.032 1.797 7.032 7.267s-2.656 7.267-7.032 7.267z" opacity="1" data-original="url(#e)" class=""></path><path fill="url(#e)" d="M210.656 125.948h-33.757c-2.579 0-3.673 2.812-3.673 5.392 0 2.969 1.328 5.548 3.673 5.548h10.783v42.43c0 2.501 3.048 3.751 6.095 3.751 3.048 0 6.095-1.25 6.095-3.751v-42.43h10.784c2.344 0 3.672-2.579 3.672-5.548 0-2.579-1.094-5.392-3.672-5.392z" opacity="1" data-original="url(#e)" class=""></path><path fill="url(#e)" d="M225.268 125.948c-3.048 0-6.095 1.094-6.095 3.672v49.697c0 2.501 3.047 3.751 6.095 3.751s6.095-1.25 6.095-3.751V129.62c-.001-2.578-3.048-3.672-6.095-3.672z" opacity="1" data-original="url(#e)" class=""></path><path fill="url(#e)" d="M272.229 125.948h-27.114c-2.657 0-5.313 1.25-5.313 3.75v49.619c0 2.501 3.047 3.751 6.095 3.751s6.095-1.25 6.095-3.751v-20.16h11.8c2.578 0 3.672-2.5 3.672-4.61 0-2.5-1.328-4.767-3.672-4.767h-11.8v-13.205h20.238c2.345 0 3.673-2.501 3.673-5.392-.001-2.5-1.094-5.235-3.674-5.235z" opacity="1" data-original="url(#e)" class=""></path><path fill="url(#e)" d="M286.139 125.948c-3.048 0-6.095 1.094-6.095 3.672v49.697c0 2.501 3.047 3.751 6.095 3.751s6.095-1.25 6.095-3.751V129.62c-.001-2.578-3.047-3.672-6.095-3.672z" opacity="1" data-original="url(#e)" class=""></path><path fill="url(#e)" d="M319.271 136.575c6.642 0 6.876 5.001 6.954 7.032.156 2.813 2.813 3.673 6.095 3.673 4.142 0 6.095-1.094 6.095-5.782 0-9.924-8.438-15.55-19.613-15.55-10.236 0-18.753 5.001-18.753 18.44v20.707c0 13.44 8.517 18.441 18.753 18.441 11.175 0 19.613-5.938 19.613-16.331 0-4.688-1.953-5.782-6.173-5.782-3.125 0-5.782.781-6.017 3.672-.234 3.048-.625 7.814-6.876 7.814-4.532 0-7.111-2.501-7.111-7.814v-20.707c-.001-5.313 2.578-7.813 7.033-7.813z" opacity="1" data-original="url(#e)" class=""></path><path fill="url(#e)" d="M371.311 129.542c-.859-2.734-4.376-4.063-7.97-4.063-3.595 0-7.111 1.329-7.971 4.063l-14.534 47.666c-.078.312-.156.625-.156.859 0 2.892 4.454 5.001 7.814 5.001 1.953 0 3.516-.625 3.984-2.266l2.657-9.768h16.487l2.657 9.768c.469 1.641 2.031 2.266 3.985 2.266 3.359 0 7.813-2.109 7.813-5.001 0-.234-.078-.547-.156-.859zm-13.675 32.116 5.705-20.941 5.704 20.941z" opacity="1" data-original="url(#e)" class=""></path><path fill="url(#e)" d="M419.524 125.948h-33.757c-2.579 0-3.673 2.812-3.673 5.392 0 2.969 1.328 5.548 3.673 5.548h10.783v42.43c0 2.501 3.048 3.751 6.095 3.751 3.048 0 6.095-1.25 6.095-3.751v-42.43h10.784c2.344 0 3.672-2.579 3.672-5.548 0-2.579-1.093-5.392-3.672-5.392z" opacity="1" data-original="url(#e)" class=""></path><path fill="url(#e)" d="M461.172 172.442H440.23v-13.284h11.722c2.578 0 3.672-2.5 3.672-4.61 0-2.5-1.328-4.767-3.672-4.767H440.23v-13.205h20.941c2.345 0 3.673-2.501 3.673-5.392 0-2.501-1.094-5.235-3.673-5.235h-27.817c-2.657 0-5.313 1.25-5.313 3.75v49.619c0 2.501 2.656 3.751 5.313 3.751h27.817c2.579 0 3.673-2.735 3.673-5.235.001-2.892-1.327-5.392-3.672-5.392z" opacity="1" data-original="url(#e)" class=""></path><g fill="#26a6fe"><path d="M205.255 267.125h48.14c5.865 0 10.619 4.754 10.619 10.619s-4.754 10.619-10.619 10.619h-48.14c-5.865 0-10.619-4.754-10.619-10.619 0-5.864 4.754-10.619 10.619-10.619zM279.589 277.744c0-5.865 4.754-10.619 10.619-10.619h12.035c5.865 0 10.619 4.754 10.619 10.619s-4.754 10.619-10.619 10.619h-12.035c-5.865 0-10.619-4.754-10.619-10.619zM335.744 238.336h-163.99c-5.865 0-10.619-4.754-10.619-10.619s4.754-10.619 10.619-10.619h163.989c5.865 0 10.619 4.755 10.619 10.619.001 5.865-4.753 10.619-10.618 10.619z" fill="#26a6fe" opacity="1" data-original="#26a6fe"></path></g><path fill="url(#f)" d="M229.679 82.746h48.14c5.865 0 10.619 4.754 10.619 10.619s-4.754 10.619-10.619 10.619h-48.14c-5.865 0-10.619-4.754-10.619-10.619s4.754-10.619 10.619-10.619z" opacity="1" data-original="url(#f)"></path><path fill="url(#c)" d="M39.262 489.195c0 9.662 11.658 14.717 18.571 7.968l.153-.151 7.18-7.18c6.841-6.841 17.931-6.841 24.772 0l7.18 7.18c6.841 6.841 17.931 6.841 24.772 0l7.18-7.18c6.841-6.841 17.931-6.841 24.772 0l7.18 7.18.153.151c6.913 6.749 18.571 1.693 18.571-7.968V316.267H39.262z" opacity="1" data-original="url(#c)" class=""></path><path fill="url(#d)" d="M56.454 347.646v61.559l77.296 77.297c6.539-3.205 14.654-2.106 20.091 3.331l7.18 7.18.152.151c6.913 6.749 18.571 1.693 18.571-7.968v-141.55z" opacity="1" data-original="url(#d)"></path><path fill="url(#g)" d="M80.803 316.267H39.262v172.929c0 9.662 11.658 14.717 18.571 7.968l.153-.151 7.18-7.18c4.251-4.251 10.143-5.856 15.637-4.823z" opacity="1" data-original="url(#g)"></path><path fill="url(#a)" d="M138.205 316.267v168.742c5.494-1.033 11.386.572 15.637 4.823l7.18 7.18.152.151c6.913 6.749 18.571 1.693 18.571-7.968V316.267z" opacity="1" data-original="url(#a)" class=""></path><path fill="url(#b)" d="M138.205 316.267v168.742c5.494-1.033 11.386.572 15.637 4.823l7.18 7.18.152.151c6.913 6.749 18.571 1.693 18.571-7.968V316.267z" opacity="1" data-original="url(#b)" class=""></path><path fill="url(#F)" d="M80.803 347.646H39.262v44.267l41.541 41.64z" opacity="1" data-original="url(#F)"></path><path fill="url(#f)" d="m213.945 331.557-9.89 10.065a17.655 17.655 0 0 0-4.868 14.985l2.085 13.951c1.424 9.53-5.054 18.441-14.559 20.026l-13.906 2.319a17.656 17.656 0 0 0-12.766 9.279l-6.485 12.489c-4.445 8.561-14.939 11.97-23.566 7.656l-12.589-6.295a17.654 17.654 0 0 0-15.793 0l-12.589 6.295c-8.628 4.314-19.121.905-23.566-7.656l-6.485-12.489a17.653 17.653 0 0 0-12.766-9.279l-13.906-2.319c-9.504-1.585-15.983-10.496-14.559-20.026l2.085-13.951a17.658 17.658 0 0 0-4.868-14.985l-9.891-10.065c-6.75-6.869-6.75-17.881 0-24.75l9.89-10.065a17.659 17.659 0 0 0 4.869-14.985l-2.085-13.951c-1.424-9.53 5.054-18.441 14.559-20.026l13.906-2.319a17.656 17.656 0 0 0 12.766-9.279l6.485-12.489c4.445-8.561 14.939-11.97 23.566-7.656l12.589 6.295a17.654 17.654 0 0 0 15.793 0l12.589-6.295c8.628-4.314 19.121-.905 23.566 7.656l6.485 12.489a17.653 17.653 0 0 0 12.766 9.279l13.906 2.319c9.504 1.585 15.983 10.496 14.559 20.026l-2.085 13.951a17.658 17.658 0 0 0 4.868 14.985l9.891 10.065c6.749 6.869 6.749 17.881-.001 24.75z" opacity="1" data-original="url(#f)"></path><circle cx="109.504" cy="319.182" r="78.301" fill="url(#H)" opacity="1" data-original="url(#H)"></circle><circle cx="109.504" cy="319.182" r="66.789" fill="url(#I)" opacity="1" data-original="url(#I)"></circle><path fill="url(#J)" d="M14.953 341.622a17.655 17.655 0 0 1 4.868 14.985l-2.085 13.951c-1.424 9.53 5.054 18.441 14.559 20.026l13.906 2.319a17.656 17.656 0 0 1 12.766 9.279l6.485 12.489c4.445 8.561 14.939 11.97 23.566 7.656l12.589-6.295a17.654 17.654 0 0 1 15.793 0l12.589 6.295c8.628 4.314 19.121.905 23.567-7.656l6.485-12.489a17.653 17.653 0 0 1 12.766-9.279l13.906-2.319c9.504-1.585 15.983-10.496 14.559-20.026l-2.085-13.951a17.656 17.656 0 0 1 4.869-14.985l9.891-10.065a17.604 17.604 0 0 0 5.062-12.375H0c0 4.47 1.687 8.94 5.062 12.375z" opacity="1" data-original="url(#J)"></path><path fill="url(#g)" d="M379.327 7.857 510 138.529v-67.98L447.307 7.857z" opacity="1" data-original="url(#g)"></path><path fill="url(#g)" d="M130.673 7.857 0 138.529v-67.98L62.693 7.857z" opacity="1" data-original="url(#g)"></path></g></svg>