<svg xmlns="http://www.w3.org/2000/svg" version="1.1" xmlns:xlink="http://www.w3.org/1999/xlink" width="512" height="512" x="0" y="0" viewBox="0 0 512 512" style="enable-background:new 0 0 512 512" xml:space="preserve" class=""><g><g data-name="Filled outline"><path fill="#fdc8a2" d="M408 256v48h-96v-48a15.989 15.989 0 0 0 16-16v-16h64v16a15.979 15.979 0 0 0 16 16z" opacity="1" data-original="#fdc8a2" class=""></path><path fill="#fdbf92" d="M393.27 246.24a76.106 76.106 0 0 1-68.31 3.15A15.959 15.959 0 0 0 328 240v-16h64v16a15.851 15.851 0 0 0 1.27 6.24z" opacity="1" data-original="#fdbf92"></path><path fill="#de5540" d="M243.931 286.173 224 336h64v120h144V336h56v-32a48 48 0 0 0-48-48h-32l-8.974 11.965A50.087 50.087 0 0 1 358.956 288a50.088 50.088 0 0 1-44.8-27.688L312 256h-23.5a48 48 0 0 0-44.569 30.173z" opacity="1" data-original="#de5540"></path><path fill="#fdc8a2" d="M240 456h-64l48-120h64z" opacity="1" data-original="#fdc8a2" class=""></path><path fill="#fdb683" d="M432 176h-16v-48h16a24 24 0 0 1 24 24 24 24 0 0 1-24 24zM280 128h16v48h-16a24 24 0 0 1-24-24 24 24 0 0 1 24-24z" opacity="1" data-original="#fdb683"></path><path fill="#fdc8a2" d="M328 64h56a48 48 0 0 1 48 48v52a76 76 0 0 1-76 76 76 76 0 0 1-76-76v-52a48 48 0 0 1 48-48z" opacity="1" data-original="#fdc8a2" class=""></path><path fill="#7d4a38" d="m432 128-17.642-5.881A44.4 44.4 0 0 1 384 80V40a48 48 0 0 1 48 48z" opacity="1" data-original="#7d4a38"></path><g fill="#844e3a"><path d="M384 40v40a190.267 190.267 0 0 1-50.48 23.83 190.5 190.5 0 0 1-55.21 8.17H264V88a64 64 0 0 1 64-64h30.11A28.939 28.939 0 0 1 384 40zM320 160a16 16 0 1 1 16-16 16.019 16.019 0 0 1-16 16zM384 160a16 16 0 1 1 16-16 16.019 16.019 0 0 1-16 16z" fill="#844e3a" opacity="1" data-original="#844e3a" class=""></path></g><path fill="#fcb079" d="M352 192.021a51.957 51.957 0 0 1-28.363-8.408l8.726-13.411a36.026 36.026 0 0 0 39.274 0l8.726 13.411A51.957 51.957 0 0 1 352 192.021z" opacity="1" data-original="#fcb079"></path><path fill="#844e3a" d="M24 456h464v32H24z" opacity="1" data-original="#844e3a" class=""></path><rect width="272" height="192" x="24" y="200" fill="#d5d5d3" rx="24" opacity="1" data-original="#d5d5d3"></rect><path fill="#cececc" d="M160 392h32l-8-48h-24z" opacity="1" data-original="#cececc"></path><path fill="#d5d5d3" d="M112 424h96v32h-96z" opacity="1" data-original="#d5d5d3"></path><path fill="#dfdfdd" d="M160 456H80l48-112h56z" opacity="1" data-original="#dfdfdd"></path><path fill="#d5d5d3" d="M240 424h96v32h-96z" opacity="1" data-original="#d5d5d3"></path><path fill="#fdc8a2" d="M432 336v64H328a32 32 0 0 0-32 32v16a8 8 0 0 0 8 8h128a56 56 0 0 0 56-56v-64z" opacity="1" data-original="#fdc8a2" class=""></path><path d="M440 248h-32a7.981 7.981 0 0 1-8-8v-4.484a84.269 84.269 0 0 0 37.693-52.028A32 32 0 0 0 440 121.013V88a56.065 56.065 0 0 0-51.315-55.789A36.7 36.7 0 0 0 358.111 16H328a72.081 72.081 0 0 0-72 72v24a8 8 0 0 0 8 8h8v1.009a32 32 0 0 0 2.274 62.468q.312 1.317.666 2.623l15.439-4.2A68.174 68.174 0 0 1 288 164v-44.242a197.684 197.684 0 0 0 89.72-26.443 52.317 52.317 0 0 0 34.108 36.393L424 133.766V164a68.006 68.006 0 0 1-107.363 55.454l-9.274 13.038A84.192 84.192 0 0 0 320 239.905V240a8.009 8.009 0 0 1-8 8h-8v-24a32.036 32.036 0 0 0-32-32H48a32.036 32.036 0 0 0-32 32v24h16v-24a16.019 16.019 0 0 1 16-16h224a16.019 16.019 0 0 1 16 16v144a16.019 16.019 0 0 1-16 16h-88.39l8.212-38.324A8 8 0 0 0 184 336h-56a8 8 0 0 0-7.353 4.849L102.154 384H48a16.019 16.019 0 0 1-16-16V264H16v104a32.036 32.036 0 0 0 32 32h47.3l-20.575 48H24a8 8 0 0 0-8 8v32a8 8 0 0 0 8 8h464a8 8 0 0 0 8-8v-32a8 8 0 0 0-8-8h-13.736A63.85 63.85 0 0 0 496 400v-8h-16v8a48.055 48.055 0 0 1-48 48H304v-16a24.028 24.028 0 0 1 24-24h104a8 8 0 0 0 8-8v-56h40v32h16v-72a56.064 56.064 0 0 0-56-56zm0-84v-25.835a15.978 15.978 0 0 1 3.32 25.142 16.2 16.2 0 0 1-3.367 2.561c.013-.623.047-1.242.047-1.868zm-176-12a15.923 15.923 0 0 1 4.68-11.307 16.159 16.159 0 0 1 3.32-2.532V164c0 .619.017 1.236.031 1.854A16 16 0 0 1 264 152zm112-76.34A181.933 181.933 0 0 1 278.311 104H272v-8.911c68.483-8.969 92.63-32.406 93.657-33.432l-11.263-11.364c-.058.056-5.877 5.589-19.922 11.985-11.815 5.381-31.772 12.374-61.711 16.562a55.568 55.568 0 0 1 4.69-14.92c29.93-.845 45.445-8.424 46.127-8.765l-7.112-14.332c-.114.056-9.07 4.292-26.61 6.229A55.784 55.784 0 0 1 328 32h30.111A20.816 20.816 0 0 1 376 42.048zm40.888 38.87A36.351 36.351 0 0 1 392 80V48.8A40.071 40.071 0 0 1 424 88v28.9zm-81.517 130.909a84.069 84.069 0 0 0 48.835-2.325 23.888 23.888 0 0 0 6.827 13.872 24.215 24.215 0 0 0 3.875 3.137l-2.28 3.039a42.031 42.031 0 0 1-68.885-2.243 24.079 24.079 0 0 0 11.628-15.48zM288 432v16h-40v-16zm-16.984-32H272a31.94 31.94 0 0 0 8-1.013V416h-15.384zm-64 0h46.768l-6.4 16H240a8 8 0 0 0-8 8v24h-16v-24a8 8 0 0 0-8-8h-7.384zm-26.835 0h9.6l-6.4 16h-6.631zM200 432v16h-30.1l3.428-16zm-66.725-80H174.1l-20.571 96h-61.4zM480 464v16H32v-16zm0-136h-40v-24h-16v88h-96a39.964 39.964 0 0 0-32 16.028v-18.9A31.86 31.86 0 0 0 304 368V264h3.061a58.083 58.083 0 0 0 98.369 8.76L412 264h28a40.045 40.045 0 0 1 40 40zm-88.617-23.2 6.975 14.4A88 88 0 0 1 316 316.21l8-13.856a72 72 0 0 0 67.384 2.446zM336 144a16 16 0 1 1-16-16 16.019 16.019 0 0 1 16 16zm32 0a16 16 0 1 1 16 16 16.019 16.019 0 0 1-16-16zm3.637 26.2 8.726 13.411a52.043 52.043 0 0 1-56.726 0l8.726-13.411a36.026 36.026 0 0 0 39.274 0zM128 248H96v-16h32zm48-16v16h-32v-16zm48 0v16h-32v-16zm48 16h-32v-16h32zM80 232v16H48v-16z" fill="#000000" opacity="1" data-original="#000000" class=""></path></g></g></svg>